<svg width="21" height="39" viewBox="0 0 21 39" fill="none" xmlns="http://www.w3.org/2000/svg">
<g clip-path="url(#clip0_1_24)">
<path d="M4.40091 18.126C4.60402 17.6287 8.96849 6.78627 9.17502 6.27667C9.22703 6.14889 9.31359 6.08941 9.46203 6.08289C9.78739 6.05065 12.5592 5.71719 12.7122 5.69992C12.8178 5.68802 12.8455 5.75134 12.8102 5.84536C12.6891 6.16731 3.1716 31.7854 3.0429 32.2159C2.96052 32.4907 2.32878 38.6028 2.30068 38.9508C2.29954 38.9669 2.28664 38.9819 2.24336 39.0003C2.23918 38.9385 2.23159 38.8772 2.23159 38.8154C2.23159 35.8165 2.25209 24.4618 2.25778 23.4518C2.25892 23.26 2.21678 23.121 2.01101 23.0324C1.80979 22.9461 1.62149 22.8091 1.45862 22.6594C1.37623 22.5838 1.33447 22.4338 1.32346 22.3125C1.26006 21.6034 0 7.19418 0 7.1063C0.181093 6.98773 1.72285 8.28053 1.83409 8.37224C1.72513 8.47355 1.60934 8.58253 1.49203 8.68959C1.39863 8.77478 1.31131 8.82505 1.49544 8.93978C1.8022 9.13127 2.92938 9.95745 3.1978 10.1566C3.27563 10.2145 3.33789 10.3212 3.3637 10.4172C3.40888 10.5868 4.25854 17.4333 4.3246 17.9767C4.33105 18.0289 4.34472 18.0803 4.35497 18.1321C4.37016 18.1298 4.38534 18.1275 4.40053 18.1252L4.40091 18.126Z" fill="black"/>
<path d="M15.3861 6.10839C15.7445 6.07385 18.7502 5.70854 19.0334 5.67017C18.9745 5.83786 14.2498 19.6952 14.1685 19.9144C14.0983 20.1043 13.0258 20.3357 12.9055 20.3533C12.6856 20.3856 12.6769 20.5751 12.6408 20.7236C12.5338 21.1607 10.8781 28.769 10.8644 28.863C10.8481 28.8626 10.8318 28.8619 10.8159 28.8615C10.8159 28.6094 10.8075 28.3569 10.8185 28.1055C10.8276 27.896 10.9563 24.8411 11.0592 24.368C11.1469 23.9643 10.9161 23.7486 10.7581 23.4731C10.705 23.3806 10.623 23.3043 10.5763 23.2091C10.5163 23.0871 10.4442 22.9558 10.4377 22.8257C10.4001 22.0809 10.3576 21.3349 10.3667 20.5901C10.3701 20.305 10.4962 20.0187 10.5839 19.7386C10.6739 19.4508 15.1298 6.84669 15.3861 6.10916V6.10839Z" fill="black"/>
<path d="M8.92871 5.29256C9.01945 5.04083 9.40024 4.03468 9.51413 3.74266C9.55741 3.63214 9.6155 3.56461 9.75065 3.53621C9.98186 3.48748 10.2112 3.40881 10.4261 3.30981C10.5229 3.26529 10.5992 3.14979 10.6584 3.05079C11.0324 2.42684 11.8801 0.929891 11.9576 0.825899C12.0164 0.74685 12.1015 0.66358 12.191 0.635951C12.4807 0.547309 14.5756 0.0699441 14.8949 0.000488281C14.8949 0.0737814 14.9063 0.119062 14.8934 0.155517C14.6816 0.745315 13.5961 3.85663 13.5354 3.97865C13.5126 4.0247 13.4363 4.05425 13.379 4.07037C12.9746 4.18242 9.4625 5.15748 8.92871 5.29256Z" fill="black"/>
<path d="M15.0372 5.28743C15.1189 5.05565 15.5042 4.04989 15.6223 3.73983C15.6633 3.632 15.7077 3.55832 15.8391 3.53683C16.019 3.50767 16.2001 3.45932 16.3672 3.38718C16.4936 3.33269 16.6291 3.25019 16.7066 3.14121C16.8812 2.89638 17.9211 1.02568 18.1105 0.752464C18.1557 0.687229 18.2544 0.646169 18.3368 0.623529C18.623 0.54448 20.8759 0.0222186 20.9997 0.0141602C20.9822 0.0974304 19.7901 3.62433 19.6215 3.95434C19.5631 4.06869 19.3398 4.10821 19.1845 4.15733C18.945 4.23293 15.363 5.2103 15.0369 5.28743H15.0372Z" fill="black"/>
</g>
<defs>
<clipPath id="clip0_1_24">
<rect width="21" height="39" fill="white"/>
</clipPath>
</defs>
</svg>
