<svg width="21" height="21" viewBox="0 0 21 21" fill="none" xmlns="http://www.w3.org/2000/svg">
<path d="M10.7969 5.67072C7.9601 5.67072 5.67066 7.96016 5.67066 10.797C5.67066 13.6338 7.9601 15.9232 10.7969 15.9232C13.6337 15.9232 15.9232 13.6338 15.9232 10.797C15.9232 7.96016 13.6337 5.67072 10.7969 5.67072ZM10.7969 14.1287C8.96236 14.1287 7.46522 12.6315 7.46522 10.797C7.46522 8.96242 8.96236 7.46528 10.7969 7.46528C12.6315 7.46528 14.1286 8.96242 14.1286 10.797C14.1286 12.6315 12.6315 14.1287 10.7969 14.1287ZM16.1331 4.26606C15.4708 4.26606 14.9359 4.80093 14.9359 5.46327C14.9359 6.12561 15.4708 6.66048 16.1331 6.66048C16.7955 6.66048 17.3303 6.12811 17.3303 5.46327C17.3305 5.30599 17.2997 5.15022 17.2396 5.00488C17.1795 4.85954 17.0913 4.72748 16.9801 4.61627C16.8689 4.50506 16.7369 4.41688 16.5915 4.35679C16.4462 4.29669 16.2904 4.26586 16.1331 4.26606ZM20.7895 10.797C20.7895 9.41731 20.802 8.05014 20.7245 6.67297C20.647 5.07336 20.2821 3.65371 19.1124 2.48399C17.9402 1.31177 16.523 0.949361 14.9234 0.87188C13.5438 0.794399 12.1766 0.806896 10.7994 0.806896C9.41975 0.806896 8.05258 0.794399 6.67542 0.87188C5.0758 0.949361 3.65615 1.31427 2.48643 2.48399C1.31421 3.65621 0.951803 5.07336 0.874321 6.67297C0.79684 8.05264 0.809337 9.41981 0.809337 10.797C0.809337 12.1741 0.79684 13.5438 0.874321 14.921C0.951803 16.5206 1.31671 17.9402 2.48643 19.11C3.65865 20.2822 5.0758 20.6446 6.67542 20.7221C8.05508 20.7996 9.42225 20.7871 10.7994 20.7871C12.1791 20.7871 13.5463 20.7996 14.9234 20.7221C16.523 20.6446 17.9427 20.2797 19.1124 19.11C20.2846 17.9377 20.647 16.5206 20.7245 14.921C20.8045 13.5438 20.7895 12.1766 20.7895 10.797ZM18.59 16.6905C18.4076 17.1454 18.1876 17.4854 17.8352 17.8353C17.4828 18.1877 17.1454 18.4076 16.6905 18.5901C15.3758 19.1125 12.2541 18.995 10.7969 18.995C9.33977 18.995 6.21553 19.1125 4.90085 18.5926C4.44596 18.4101 4.10604 18.1902 3.75612 17.8378C3.40371 17.4854 3.18376 17.1479 3.00131 16.693C2.48143 15.3759 2.5989 12.2541 2.5989 10.797C2.5989 9.33983 2.48143 6.21559 3.00131 4.9009C3.18376 4.44601 3.40371 4.1061 3.75612 3.75618C4.10854 3.40627 4.44596 3.18382 4.90085 3.00136C6.21553 2.48149 9.33977 2.59896 10.7969 2.59896C12.2541 2.59896 15.3783 2.48149 16.693 3.00136C17.1479 3.18382 17.4878 3.40377 17.8377 3.75618C18.1901 4.1086 18.4101 4.44601 18.5925 4.9009C19.1124 6.21559 18.9949 9.33983 18.9949 10.797C18.9949 12.2541 19.1124 15.3759 18.59 16.6905Z" fill="black"/>
</svg>
