<svg width="109" height="39" viewBox="0 0 109 39" fill="none" xmlns="http://www.w3.org/2000/svg">
<path d="M28.5254 24V6.80029H33.6035L36.0327 20.1304L38.4497 6.80029H43.5278V24H40.5249V10.0718L37.9736 24H34.0796L31.5283 10.0718V24H28.5254ZM52.2559 6.2998C55.7227 6.2998 57.4561 8.14714 57.4561 11.8418V18.9463C57.4561 22.6491 55.7227 24.5005 52.2559 24.5005C48.7891 24.5005 47.0557 22.6491 47.0557 18.9463V11.8418C47.0557 8.14714 48.7891 6.2998 52.2559 6.2998ZM52.2559 8.75342C51.6292 8.75342 51.1816 8.99349 50.9131 9.47363C50.6445 9.95378 50.5103 10.7432 50.5103 11.8418V18.9463C50.5103 20.0449 50.6445 20.8384 50.9131 21.3267C51.1816 21.8068 51.6292 22.0469 52.2559 22.0469C52.8825 22.0469 53.3301 21.8068 53.5986 21.3267C53.8672 20.8384 54.0015 20.0449 54.0015 18.9463V11.8418C54.0015 10.7432 53.8672 9.95378 53.5986 9.47363C53.3301 8.99349 52.8825 8.75342 52.2559 8.75342ZM65.4272 9.25391H64.4263V21.5464H65.4272C66.3875 21.5464 67.0426 21.3226 67.3926 20.875C67.7425 20.4274 67.9175 19.6177 67.9175 18.4458V12.3423C67.9175 11.1785 67.7425 10.3729 67.3926 9.92529C67.0426 9.4777 66.3875 9.25391 65.4272 9.25391ZM65.4272 6.80029C67.4455 6.80029 68.9388 7.25602 69.9072 8.16748C70.8838 9.07894 71.3721 10.4705 71.3721 12.3423V18.4458C71.3721 20.3257 70.8838 21.7214 69.9072 22.6328C68.9388 23.5443 67.4455 24 65.4272 24H60.9717V6.80029H65.4272ZM74.8877 24V6.80029H83.3228V9.25391H78.3423V13.7705H83.0664V16.2241H78.3423V21.5464H83.3228V24H74.8877ZM86.46 24V6.80029H89.9146V21.5464H94.3701V24H86.46ZM102.207 6.2998C103.737 6.2998 104.95 6.66195 105.845 7.38623C106.74 8.11051 107.188 9.09115 107.188 10.3281V11.7441H103.733V10.3281C103.733 9.61198 103.615 9.09521 103.379 8.77783C103.143 8.46045 102.752 8.30176 102.207 8.30176C101.686 8.30176 101.308 8.46452 101.072 8.79004C100.836 9.10742 100.718 9.62012 100.718 10.3281V10.9263C100.718 11.9272 101.157 12.6841 102.036 13.1968L104.88 14.8203C106.532 15.7562 107.358 17.1315 107.358 18.9463V20.1182C107.358 21.5342 106.915 22.6206 106.028 23.3774C105.141 24.1261 103.867 24.5005 102.207 24.5005C100.571 24.5005 99.3058 24.0936 98.4106 23.2798C97.5236 22.466 97.0801 21.3063 97.0801 19.8008V18.4458H100.535V19.8008C100.535 20.7529 100.665 21.4406 100.925 21.8638C101.186 22.2869 101.613 22.4985 102.207 22.4985C102.842 22.4985 103.281 22.3236 103.525 21.9736C103.778 21.6156 103.904 20.9971 103.904 20.1182V19.3247C103.904 18.4377 103.481 17.7541 102.634 17.2739L100.315 15.9434C99.3465 15.39 98.5938 14.7186 98.0566 13.9292C97.5277 13.1398 97.2632 12.3016 97.2632 11.4146V10.3281C97.2632 9.14811 97.7189 8.18376 98.6304 7.43506C99.55 6.67822 100.742 6.2998 102.207 6.2998Z" fill="black"/>
<g clip-path="url(#clip0_407_3)">
<path d="M4.40091 18.126C4.60402 17.6287 8.96849 6.78627 9.17502 6.27667C9.22703 6.14889 9.31359 6.08941 9.46203 6.08289C9.78739 6.05065 12.5592 5.71719 12.7122 5.69992C12.8178 5.68802 12.8455 5.75134 12.8102 5.84536C12.6891 6.16731 3.1716 31.7854 3.0429 32.2159C2.96052 32.4907 2.32878 38.6028 2.30068 38.9508C2.29954 38.9669 2.28664 38.9819 2.24336 39.0003C2.23918 38.9385 2.23159 38.8771 2.23159 38.8154C2.23159 35.8165 2.25209 24.4618 2.25778 23.4518C2.25892 23.26 2.21678 23.121 2.01101 23.0324C1.80979 22.9461 1.62149 22.8091 1.45862 22.6594C1.37623 22.5838 1.33447 22.4338 1.32346 22.3125C1.26006 21.6034 0 7.19418 0 7.1063C0.181093 6.98773 1.72285 8.28053 1.83409 8.37224C1.72513 8.47355 1.60934 8.58253 1.49203 8.68959C1.39863 8.77478 1.31131 8.82505 1.49544 8.93978C1.8022 9.13127 2.92938 9.95745 3.1978 10.1566C3.27563 10.2145 3.33789 10.3212 3.3637 10.4172C3.40888 10.5868 4.25854 17.4333 4.3246 17.9767C4.33105 18.0289 4.34472 18.0803 4.35497 18.1321C4.37016 18.1298 4.38534 18.1275 4.40053 18.1252L4.40091 18.126Z" fill="black"/>
<path d="M15.3861 6.10839C15.7445 6.07385 18.7502 5.70854 19.0334 5.67017C18.9745 5.83786 14.2498 19.6952 14.1685 19.9144C14.0983 20.1043 13.0258 20.3357 12.9055 20.3533C12.6856 20.3856 12.6769 20.5751 12.6408 20.7236C12.5338 21.1607 10.8781 28.769 10.8644 28.863C10.8481 28.8626 10.8318 28.8619 10.8159 28.8615C10.8159 28.6094 10.8075 28.3569 10.8185 28.1055C10.8276 27.896 10.9563 24.8411 11.0592 24.368C11.1469 23.9643 10.9161 23.7486 10.7581 23.4731C10.705 23.3806 10.623 23.3043 10.5763 23.2091C10.5163 23.0871 10.4442 22.9558 10.4377 22.8257C10.4001 22.0809 10.3576 21.3349 10.3667 20.5901C10.3701 20.305 10.4962 20.0187 10.5839 19.7386C10.6739 19.4508 15.1298 6.84669 15.3861 6.10916V6.10839Z" fill="black"/>
<path d="M8.92865 5.29256C9.01939 5.04083 9.40018 4.03468 9.51407 3.74266C9.55735 3.63214 9.61544 3.56461 9.75059 3.53621C9.9818 3.48748 10.2111 3.40881 10.426 3.30981C10.5228 3.26529 10.5991 3.14979 10.6583 3.05079C11.0323 2.42684 11.8801 0.929891 11.9575 0.825899C12.0163 0.74685 12.1014 0.66358 12.191 0.635951C12.4807 0.547309 14.5756 0.0699441 14.8949 0.000488281C14.8949 0.0737814 14.9063 0.119062 14.8933 0.155517C14.6815 0.745315 13.5961 3.85663 13.5353 3.97865C13.5126 4.0247 13.4362 4.05425 13.3789 4.07037C12.9746 4.18242 9.46244 5.15748 8.92865 5.29256Z" fill="black"/>
<path d="M15.0372 5.28743C15.1188 5.05565 15.5042 4.04989 15.6222 3.73983C15.6632 3.632 15.7076 3.55832 15.839 3.53683C16.019 3.50767 16.2001 3.45932 16.3671 3.38718C16.4935 3.33269 16.6291 3.25019 16.7065 3.14121C16.8811 2.89638 17.921 1.02568 18.1105 0.752464C18.1556 0.687229 18.2543 0.646169 18.3367 0.623529C18.623 0.54448 20.8758 0.0222186 20.9996 0.0141602C20.9821 0.0974304 19.79 3.62433 19.6215 3.95434C19.563 4.06869 19.3398 4.10821 19.1845 4.15733C18.9449 4.23293 15.3629 5.2103 15.0368 5.28743H15.0372Z" fill="black"/>
</g>
<defs>
<clipPath id="clip0_407_3">
<rect width="21" height="39" fill="white"/>
</clipPath>
</defs>
</svg>
