<svg width="21" height="21" viewBox="0 0 21 21" fill="none" xmlns="http://www.w3.org/2000/svg">
<path d="M20.7345 19.3573L14.2436 12.8664C15.2508 11.5642 15.7957 9.97209 15.7957 8.2975C15.7957 6.29299 15.0134 4.41344 13.5987 2.99628C12.1841 1.57913 10.2995 0.799316 8.2975 0.799316C6.29549 0.799316 4.41094 1.58163 2.99628 2.99628C1.57913 4.41094 0.799316 6.29299 0.799316 8.2975C0.799316 10.2995 1.58163 12.1841 2.99628 13.5987C4.41094 15.0159 6.29299 15.7957 8.2975 15.7957C9.97209 15.7957 11.5617 15.2508 12.8639 14.2461L19.3548 20.7345C19.3739 20.7535 19.3965 20.7686 19.4213 20.7789C19.4462 20.7893 19.4729 20.7946 19.4998 20.7946C19.5267 20.7946 19.5534 20.7893 19.5782 20.7789C19.6031 20.7686 19.6257 20.7535 19.6448 20.7345L20.7345 19.6472C20.7535 19.6282 20.7686 19.6056 20.7789 19.5807C20.7893 19.5559 20.7946 19.5292 20.7946 19.5023C20.7946 19.4754 20.7893 19.4487 20.7789 19.4238C20.7686 19.399 20.7535 19.3764 20.7345 19.3573ZM12.2565 12.2565C11.1968 13.3138 9.79214 13.8961 8.2975 13.8961C6.80286 13.8961 5.3982 13.3138 4.33846 12.2565C3.28122 11.1968 2.69886 9.79214 2.69886 8.2975C2.69886 6.80286 3.28122 5.3957 4.33846 4.33846C5.3982 3.28122 6.80286 2.69886 8.2975 2.69886C9.79214 2.69886 11.1993 3.27872 12.2565 4.33846C13.3138 5.3982 13.8961 6.80286 13.8961 8.2975C13.8961 9.79214 13.3138 11.1993 12.2565 12.2565Z" fill="black"/>
</svg>
